<?xml version="1.0" encoding="utf-8"?><svg version="1.1" preserveAspectRatio="xMidYMid" xml:space="preserve" width="520.3471pt" height="286.6621pt" viewBox="160.3555 92.8483 520.3471 286.6621" xmlns="http://www.w3.org/2000/svg" xmlns:xlink="http://www.w3.org/1999/xlink"><desc xmlns:eadoc="http://www.siemens.com/eauml/doc"><eadoc:guid>EAID_4B0DB97A_EE1A_4ae6_9B8B_12A53C788B93</eadoc:guid><eadoc:name>Core Public Organisation Vocabulary Model</eadoc:name><eadoc:type>Diagram</eadoc:type><eadoc:note></eadoc:note></desc><g transform="matrix(1 0 0 -1 0 841)"><g stroke="#000000" fill="none" fill-rule="evenodd" stroke-width="1" stroke-linecap="round" stroke-linejoin="round" stroke-miterlimit="3" letter-spacing="normal" font-weight="normal" font-style="normal" baseline-shift="0"><g transform="matrix(0.5 0 0 0.5 0 841.650024)"><g transform="matrix(1.438936 0 0 -1.439692 0 0)" font-family="CalibriUnicode" font-size="8"><path fill="#DFDFDF" stroke="none" d="M496 276C496 271 496 271 501 271H665C670 271 670 271 670 276v88C670 369 670 369 665 369H501C496 369 496 369 496 364V276" /><path fill="#FEFAF7" stroke="none" d="M493 273C493 268 493 268 498 268H662C667 268 667 268 667 273v88C667 366 667 366 662 366H498C493 366 493 366 493 361V273" /><path d="M493 273C493 268 493 268 498 268H662C667 268 667 268 667 273v88C667 366 667 366 662 366H498C493 366 493 366 493 361V273m0 0C493 268 493 268 498 268H662C667 268 667 268 667 273v88C667 366 667 366 662 366H498C493 366 493 366 493 361V273" /><rect x="493" y="268" width="174" height="98" /><text transform="matrix(1 0 0 1 547 277)" fill="#000000" font-weight="bold" stroke="none"><desc xmlns:eadoc="http://www.siemens.com/eauml/doc"><eadoc:guid>EAID_69733AA5_DED6_405d_95C7_3E7F9D612F25</eadoc:guid><eadoc:name>Public Organization</eadoc:name><eadoc:type>Class</eadoc:type><eadoc:note></eadoc:note></desc><tspan dx="0 " x="0" y="8">P</tspan><tspan dx="0 " x="4.5" y="8">u</tspan><tspan dx="0 " x="9" y="8">b</tspan><tspan dx="0 " x="13.5" y="8">l</tspan><tspan dx="0 " x="15.5" y="8">i</tspan><tspan dx="0 " x="17.5" y="8">c</tspan><tspan dx="0 " x="20.75" y="8"> </tspan><tspan dx="0 " x="22.75" y="8">O</tspan><tspan dx="0 " x="28.5" y="8">r</tspan><tspan dx="0 " x="31.25" y="8">g</tspan><tspan dx="0 " x="35.25" y="8">a</tspan><tspan dx="0 " x="39.25" y="8">n</tspan><tspan dx="0 " x="43.5" y="8">i</tspan><tspan dx="0 " x="45.5" y="8">z</tspan><tspan dx="0 " x="48.75" y="8">a</tspan><tspan dx="0 0 " x="52.75" y="8">ti</tspan><tspan dx="0 " x="57.5" y="8">o</tspan><tspan dx="0 " x="61.75" y="8">n</tspan></text><path d="M493 292H667" /><text transform="matrix(1 0 0 1 498 296)" fill="#2F4F4F" stroke="none"><tspan dx="0 " x="0" y="8">+ </tspan></text><text transform="matrix(1 0 0 1 512 296)" fill="#2F4F4F" stroke="none"><tspan dx="0 " x="0" y="8">preferredLabel: literal</tspan></text><text transform="matrix(1 0 0 1 498 306)" fill="#2F4F4F" stroke="none"><tspan dx="0 " x="0" y="8">+ </tspan></text><text transform="matrix(1 0 0 1 512 306)" fill="#2F4F4F" stroke="none"><tspan dx="0 " x="0" y="8">a</tspan><tspan dx="0 " x="4.5" y="8">l</tspan><tspan dx="0 " x="7" y="8">t</tspan><tspan dx="0 " x="10" y="8">e</tspan><tspan dx="0 " x="14.75" y="8">r</tspan><tspan dx="0 " x="18" y="8">n</tspan><tspan dx="0 " x="23" y="8">a</tspan><tspan dx="0 0 " x="27.5" y="8">ti</tspan><tspan dx="0 " x="33" y="8">v</tspan><tspan dx="0 " x="37.5" y="8">e</tspan><tspan dx="0 " x="42.25" y="8">L</tspan><tspan dx="0 " x="46.25" y="8">a</tspan><tspan dx="0 " x="50.75" y="8">b</tspan><tspan dx="0 " x="55.75" y="8">e</tspan><tspan dx="0 " x="60.5" y="8">l</tspan><tspan dx="0 " x="63" y="8">:</tspan><tspan dx="0 " x="65.5" y="8"> </tspan><tspan dx="0 " x="68" y="8">l</tspan><tspan dx="0 " x="70.5" y="8">i</tspan><tspan dx="0 " x="73" y="8">t</tspan><tspan dx="0 " x="76" y="8">e</tspan><tspan dx="0 " x="80.5" y="8">r</tspan><tspan dx="0 " x="83.5" y="8">a</tspan><tspan dx="0 " x="87.75" y="8">l</tspan></text><text transform="matrix(1 0 0 1 498 316)" fill="#2F4F4F" stroke="none"><tspan dx="0 " x="0" y="8">+ </tspan></text><text transform="matrix(1 0 0 1 512 316)" fill="#2F4F4F" stroke="none"><tspan dx="0 " x="0" y="8">i</tspan><tspan dx="0 " x="2.5" y="8">d</tspan><tspan dx="0 " x="7.5" y="8">e</tspan><tspan dx="0 " x="12.25" y="8">n</tspan><tspan dx="0 0 " x="17.25" y="8">ti</tspan><tspan dx="0 0 " x="22.75" y="8">fi</tspan><tspan dx="0 " x="28.25" y="8">e</tspan><tspan dx="0 " x="33" y="8">r</tspan><tspan dx="0 " x="36.25" y="8">:</tspan><tspan dx="0 " x="38.75" y="8"> </tspan><tspan dx="0 " x="41.25" y="8">l</tspan><tspan dx="0 " x="43.75" y="8">i</tspan><tspan dx="0 " x="46.25" y="8">t</tspan><tspan dx="0 " x="49.25" y="8">e</tspan><tspan dx="0 " x="53.75" y="8">r</tspan><tspan dx="0 " x="56.75" y="8">a</tspan><tspan dx="0 " x="61" y="8">l</tspan><tspan dx="0 " x="63.25" y="8"> </tspan><tspan dx="0 " x="65.5" y="8">(</tspan><tspan dx="0 " x="68.25" y="8">t</tspan><tspan dx="0 " x="71" y="8">y</tspan><tspan dx="0 " x="75.25" y="8">p</tspan><tspan dx="0 " x="80" y="8">e</tspan><tspan dx="0 " x="84.5" y="8">d</tspan><tspan dx="0 " x="89.25" y="8">)</tspan></text><text transform="matrix(1 0 0 1 498 326)" fill="#2F4F4F" stroke="none"><tspan dx="0 " x="0" y="8">+ </tspan></text><text transform="matrix(1 0 0 1 512 326)" fill="#2F4F4F" stroke="none"><tspan dx="0 " x="0" y="8">d</tspan><tspan dx="0 " x="5" y="8">e</tspan><tspan dx="0 " x="9.75" y="8">s</tspan><tspan dx="0 " x="13.75" y="8">c</tspan><tspan dx="0 " x="17.75" y="8">r</tspan><tspan dx="0 " x="21" y="8">i</tspan><tspan dx="0 " x="23.5" y="8">p</tspan><tspan dx="0 0 " x="28.5" y="8">ti</tspan><tspan dx="0 " x="34" y="8">o</tspan><tspan dx="0 " x="39" y="8">n</tspan><tspan dx="0 " x="44" y="8">:</tspan><tspan dx="0 " x="46.5" y="8"> </tspan><tspan dx="0 " x="49" y="8">l</tspan><tspan dx="0 " x="51.5" y="8">i</tspan><tspan dx="0 " x="54" y="8">t</tspan><tspan dx="0 " x="57" y="8">e</tspan><tspan dx="0 " x="61.5" y="8">r</tspan><tspan dx="0 " x="64.5" y="8">a</tspan><tspan dx="0 " x="68.75" y="8">l</tspan></text><path fill="#DFDFDF" stroke="none" d="M398 149C398 144 398 144 403 144h97C505 144 505 144 505 149v44C505 198 505 198 500 198H403C398 198 398 198 398 193V149" /><path fill="#FEFAF7" stroke="none" d="M395 146C395 141 395 141 400 141h97C502 141 502 141 502 146v44C502 195 502 195 497 195H400C395 195 395 195 395 190V146" /><path d="M395 146C395 141 395 141 400 141h97C502 141 502 141 502 146v44C502 195 502 195 497 195H400C395 195 395 195 395 190V146m0 0C395 141 395 141 400 141h97C502 141 502 141 502 146v44C502 195 502 195 497 195H400C395 195 395 195 395 190V146" /><rect x="395" y="141" width="107" height="54" /><text transform="matrix(1 0 0 1 435 150)" fill="#000000" font-weight="bold" stroke="none"><desc xmlns:eadoc="http://www.siemens.com/eauml/doc"><eadoc:guid>EAID_B8405FDC_7821_45a9_84CE_F38006A27F61</eadoc:guid><eadoc:name>Address</eadoc:name><eadoc:type>Class</eadoc:type><eadoc:note></eadoc:note></desc><tspan dx="0 " x="0" y="8">Address</tspan></text><path fill="#DFDFDF" stroke="none" d="M825 352C825 347 825 347 830 347H930C935 347 935 347 935 352v59C935 416 935 416 930 416H830C825 416 825 416 825 411V352" /><path fill="#FEFAF7" stroke="none" d="M822 349C822 344 822 344 827 344H927C932 344 932 344 932 349v59C932 413 932 413 927 413H827C822 413 822 413 822 408V349" /><path d="M822 349C822 344 822 344 827 344H927C932 344 932 344 932 349v59C932 413 932 413 927 413H827C822 413 822 413 822 408V349m0 0C822 344 822 344 827 344H927C932 344 932 344 932 349v59C932 413 932 413 927 413H827C822 413 822 413 822 408V349" /><rect x="822" y="344" width="110" height="69" /><text transform="matrix(1 0 0 1 844 353)" fill="#000000" font-weight="bold" stroke="none"><desc xmlns:eadoc="http://www.siemens.com/eauml/doc"><eadoc:guid>EAID_3BEAAFA7_E932_494b_8AE7_FC238D9827D7</eadoc:guid><eadoc:name>Organizational Unit</eadoc:name><eadoc:type>Class</eadoc:type><eadoc:note></eadoc:note></desc><tspan dx="0 " x="0" y="8">O</tspan><tspan dx="0 " x="5.75" y="8">r</tspan><tspan dx="0 " x="8.5" y="8">g</tspan><tspan dx="0 " x="12.5" y="8">a</tspan><tspan dx="0 " x="16.75" y="8">n</tspan><tspan dx="0 " x="21.25" y="8">i</tspan><tspan dx="0 " x="23.25" y="8">z</tspan><tspan dx="0 " x="26.5" y="8">a</tspan><tspan dx="0 0 " x="30.75" y="8">ti</tspan><tspan dx="0 " x="35.5" y="8">o</tspan><tspan dx="0 " x="40" y="8">n</tspan><tspan dx="0 " x="44.5" y="8">a</tspan><tspan dx="0 " x="48.75" y="8">l</tspan><tspan dx="0 " x="50.75" y="8"> </tspan><tspan dx="0 " x="52.75" y="8">U</tspan><tspan dx="0 " x="58" y="8">n</tspan><tspan dx="0 " x="62.25" y="8">i</tspan><tspan dx="0 " x="64.25" y="8">t</tspan></text><path fill="#DFDFDF" stroke="none" d="M353 453C353 448 353 448 358 448h79C442 448 442 448 442 453v59C442 517 442 517 437 517H358C353 517 353 517 353 512V453" /><path fill="#FEFAF7" stroke="none" d="M350 450C350 445 350 445 355 445h79C439 445 439 445 439 450v59C439 514 439 514 434 514H355C350 514 350 514 350 509V450" /><path d="M350 450C350 445 350 445 355 445h79C439 445 439 445 439 450v59C439 514 439 514 434 514H355C350 514 350 514 350 509V450m0 0C350 445 350 445 355 445h79C439 445 439 445 439 450v59C439 514 439 514 434 514H355C350 514 350 514 350 509V450" /><rect x="350" y="445" width="89" height="69" /><text transform="matrix(1 0 0 1 381 454)" fill="#000000" font-weight="bold" stroke="none"><desc xmlns:eadoc="http://www.siemens.com/eauml/doc"><eadoc:guid>EAID_A6F1F143_65BB_43c1_8EF0_CEB675C3C95E</eadoc:guid><eadoc:name>Concept</eadoc:name><eadoc:type>Class</eadoc:type><eadoc:note></eadoc:note></desc><tspan dx="0 " x="0" y="8">Concept</tspan></text><path fill="#DFDFDF" stroke="none" d="M238 293C238 288 238 288 243 288h79C327 288 327 288 327 293v59C327 357 327 357 322 357H243C238 357 238 357 238 352V293" /><path fill="#FEFAF7" stroke="none" d="M235 290C235 285 235 285 240 285h79C324 285 324 285 324 290v59C324 354 324 354 319 354H240C235 354 235 354 235 349V290" /><path d="M235 290C235 285 235 285 240 285h79C324 285 324 285 324 290v59C324 354 324 354 319 354H240C235 354 235 354 235 349V290m0 0C235 285 235 285 240 285h79C324 285 324 285 324 290v59C324 354 324 354 319 354H240C235 354 235 354 235 349V290" /><rect x="235" y="285" width="89" height="69" /><text transform="matrix(1 0 0 1 258 301)" fill="#000000" font-weight="bold" stroke="none"><desc xmlns:eadoc="http://www.siemens.com/eauml/doc"><eadoc:guid>EAID_6A321B24_C0B7_4b79_9F83_F1D7D1ADCA98</eadoc:guid><eadoc:name>ChangeEvent</eadoc:name><eadoc:type>Class</eadoc:type><eadoc:note></eadoc:note></desc><tspan dx="0 " x="0" y="8">ChangeEvent</tspan></text><path fill="#DFDFDF" stroke="none" d="M468 453C468 448 468 448 473 448h79C557 448 557 448 557 453v59C557 517 557 517 552 517H473C468 517 468 517 468 512V453" /><path fill="#FEFAF7" stroke="none" d="M465 450C465 445 465 445 470 445h79C554 445 554 445 554 450v59C554 514 554 514 549 514H470C465 514 465 514 465 509V450" /><path d="M465 450C465 445 465 445 470 445h79C554 445 554 445 554 450v59C554 514 554 514 549 514H470C465 514 465 514 465 509V450m0 0C465 445 465 445 470 445h79C554 445 554 445 554 450v59C554 514 554 514 549 514H470C465 514 465 514 465 509V450" /><rect x="465" y="445" width="89" height="69" /><text transform="matrix(1 0 0 1 492 454)" fill="#000000" font-weight="bold" stroke="none"><desc xmlns:eadoc="http://www.siemens.com/eauml/doc"><eadoc:guid>EAID_4FBF02EC_1A19_4cc6_A48E_54ABC9B53488</eadoc:guid><eadoc:name>Document</eadoc:name><eadoc:type>Class</eadoc:type><eadoc:note></eadoc:note></desc><tspan dx="0 " x="0" y="8">Document</tspan></text><path fill="#DFDFDF" stroke="none" d="M237 149C237 144 237 144 242 144H351C356 144 356 144 356 149v46C356 200 356 200 351 200H242C237 200 237 200 237 195V149" /><path fill="#FEFAF7" stroke="none" d="M234 146C234 141 234 141 239 141H348C353 141 353 141 353 146v46C353 197 353 197 348 197H239C234 197 234 197 234 192V146" /><path d="M234 146C234 141 234 141 239 141H348C353 141 353 141 353 146v46C353 197 353 197 348 197H239C234 197 234 197 234 192V146m0 0C234 141 234 141 239 141H348C353 141 353 141 353 146v46C353 197 353 197 348 197H239C234 197 234 197 234 192V146" /><rect x="234" y="141" width="119" height="56" /><text transform="matrix(1 0 0 1 262 150)" fill="#000000" font-weight="bold" stroke="none"><desc xmlns:eadoc="http://www.siemens.com/eauml/doc"><eadoc:guid>EAID_5D81D96B_E38B_45b6_BD4E_47BFD17F429B</eadoc:guid><eadoc:name>FormalFramework</eadoc:name><eadoc:type>Class</eadoc:type><eadoc:note></eadoc:note></desc><tspan dx="0 " x="0" y="8">FormalFramework</tspan></text><path d="M234 165H353" /><text transform="matrix(1 0 0 1 239 169)" fill="#2F4F4F" stroke="none"><tspan dx="0 " x="0" y="8">+ </tspan></text><text transform="matrix(1 0 0 1 253 169)" fill="#2F4F4F" stroke="none"><tspan dx="0 " x="0" y="8">name: literal</tspan></text><text transform="matrix(1 0 0 1 239 179)" fill="#2F4F4F" stroke="none"><tspan dx="0 " x="0" y="8">+ </tspan></text><text transform="matrix(1 0 0 1 253 179)" fill="#2F4F4F" stroke="none"><tspan dx="0 " x="0" y="8">i</tspan><tspan dx="0 " x="2.5" y="8">d</tspan><tspan dx="0 " x="7.5" y="8">e</tspan><tspan dx="0 " x="12.25" y="8">n</tspan><tspan dx="0 0 " x="17.25" y="8">ti</tspan><tspan dx="0 0 " x="22.75" y="8">fi</tspan><tspan dx="0 " x="28.25" y="8">e</tspan><tspan dx="0 " x="33" y="8">r</tspan><tspan dx="0 " x="36.25" y="8">:</tspan><tspan dx="0 " x="38.75" y="8"> </tspan><tspan dx="0 " x="41.25" y="8">i</tspan><tspan dx="0 " x="43.75" y="8">d</tspan><tspan dx="0 " x="48.75" y="8">e</tspan><tspan dx="0 " x="53.5" y="8">n</tspan><tspan dx="0 0 " x="58.5" y="8">ti</tspan><tspan dx="0 0 " x="63.5" y="8">fi</tspan><tspan dx="0 " x="68.5" y="8">e</tspan><tspan dx="0 " x="73" y="8">r</tspan></text><path fill="#DFDFDF" stroke="none" d="M698 453C698 448 698 448 703 448h79C787 448 787 448 787 453v59C787 517 787 517 782 517H703C698 517 698 517 698 512V453" /><path fill="#FEFAF7" stroke="none" d="M695 450C695 445 695 445 700 445h79C784 445 784 445 784 450v59C784 514 784 514 779 514H700C695 514 695 514 695 509V450" /><path d="M695 450C695 445 695 445 700 445h79C784 445 784 445 784 450v59C784 514 784 514 779 514H700C695 514 695 514 695 509V450m0 0C695 445 695 445 700 445h79C784 445 784 445 784 450v59C784 514 784 514 779 514H700C695 514 695 514 695 509V450" /><rect x="695" y="445" width="89" height="69" /><text transform="matrix(1 0 0 1 695 454)" fill="#000000" font-weight="bold" stroke="none"><desc xmlns:eadoc="http://www.siemens.com/eauml/doc"><eadoc:guid>EAID_E26D482E_0C0A_45c9_9E08_D2496A17AFA7</eadoc:guid><eadoc:name>Administrative Territorial Units</eadoc:name><eadoc:type>Class</eadoc:type><eadoc:note></eadoc:note></desc><tspan dx="0 " x="0" y="8">A</tspan><tspan dx="0 " x="5" y="8">d</tspan><tspan dx="0 " x="9.5" y="8">m</tspan><tspan dx="0 " x="16.25" y="8">i</tspan><tspan dx="0 " x="18.25" y="8">n</tspan><tspan dx="0 " x="22.75" y="8">i</tspan><tspan dx="0 " x="24.75" y="8">s</tspan><tspan dx="0 " x="28.25" y="8">t</tspan><tspan dx="0 " x="31" y="8">r</tspan><tspan dx="0 " x="33.75" y="8">a</tspan><tspan dx="0 0 " x="38" y="8">ti</tspan><tspan dx="0 " x="42.75" y="8">v</tspan><tspan dx="0 " x="46.75" y="8">e</tspan><tspan dx="0 " x="51" y="8"> </tspan><tspan dx="0 " x="53" y="8">T</tspan><tspan dx="0 " x="57.25" y="8">e</tspan><tspan dx="0 " x="61.5" y="8">r</tspan><tspan dx="0 " x="64.25" y="8">r</tspan><tspan dx="0 " x="67" y="8">i</tspan><tspan dx="0 " x="69" y="8">t</tspan><tspan dx="0 " x="71.75" y="8">o</tspan><tspan dx="0 " x="76.25" y="8">r</tspan><tspan dx="0 " x="79" y="8">i</tspan><tspan dx="0 " x="81" y="8">a</tspan><tspan dx="0 " x="85.25" y="8">l</tspan><tspan dx="0 " x="87.25" y="8"> </tspan><tspan dx="0 " x="36" y="18">Units</tspan></text><path fill="#DFDFDF" stroke="none" d="M238 453C238 448 238 448 243 448h79C327 448 327 448 327 453v59C327 517 327 517 322 517H243C238 517 238 517 238 512V453" /><path fill="#FEFAF7" stroke="none" d="M235 450C235 445 235 445 240 445h79C324 445 324 445 324 450v59C324 514 324 514 319 514H240C235 514 235 514 235 509V450" /><path d="M235 450C235 445 235 445 240 445h79C324 445 324 445 324 450v59C324 514 324 514 319 514H240C235 514 235 514 235 509V450m0 0C235 445 235 445 240 445h79C324 445 324 445 324 450v59C324 514 324 514 319 514H240C235 514 235 514 235 509V450" /><rect x="235" y="445" width="89" height="69" /><text transform="matrix(1 0 0 1 251 454)" fill="#000000" font-weight="bold" stroke="none"><desc xmlns:eadoc="http://www.siemens.com/eauml/doc"><eadoc:guid>EAID_8DF38C18_8F3F_41de_90F1_9A7E806D3D8D</eadoc:guid><eadoc:name>FoundationEvent</eadoc:name><eadoc:type>Class</eadoc:type><eadoc:note></eadoc:note></desc><tspan dx="0 " x="0" y="8">F</tspan><tspan dx="0 " x="3.75" y="8">o</tspan><tspan dx="0 " x="8.25" y="8">u</tspan><tspan dx="0 " x="12.75" y="8">n</tspan><tspan dx="0 " x="17.25" y="8">d</tspan><tspan dx="0 " x="21.75" y="8">a</tspan><tspan dx="0 0 " x="26" y="8">ti</tspan><tspan dx="0 " x="30.75" y="8">o</tspan><tspan dx="0 " x="35.25" y="8">n</tspan><tspan dx="0 " x="39.5" y="8">E</tspan><tspan dx="0 " x="43.25" y="8">v</tspan><tspan dx="0 " x="47" y="8">e</tspan><tspan dx="0 " x="51" y="8">n</tspan><tspan dx="0 " x="55.25" y="8">t</tspan></text><path fill="#DFDFDF" stroke="none" d="M553 149C553 144 553 144 558 144H726C731 144 731 144 731 149v64C731 218 731 218 726 218H558C553 218 553 218 553 213V149" /><path fill="#FEFAF7" stroke="none" d="M550 146C550 141 550 141 555 141H723C728 141 728 141 728 146v64C728 215 728 215 723 215H555C550 215 550 215 550 210V146" /><path d="M550 146C550 141 550 141 555 141H723C728 141 728 141 728 146v64C728 215 728 215 723 215H555C550 215 550 215 550 210V146m0 0C550 141 550 141 555 141H723C728 141 728 141 728 146v64C728 215 728 215 723 215H555C550 215 550 215 550 210V146" /><rect x="550" y="141" width="178" height="74" /><text transform="matrix(1 0 0 1 617 150)" fill="#000000" font-weight="bold" stroke="none"><desc xmlns:eadoc="http://www.siemens.com/eauml/doc"><eadoc:guid>EAID_994307E6_C23C_4dd9_A3BA_6601F121DF73</eadoc:guid><eadoc:name>Contact Point</eadoc:name><eadoc:type>Class</eadoc:type><eadoc:note></eadoc:note></desc><tspan dx="0 " x="0" y="8">Contact Point</tspan></text><path d="M550 165H728" /><text transform="matrix(1 0 0 1 555 169)" fill="#2F4F4F" stroke="none"><tspan dx="0 " x="0" y="8">+ </tspan></text><text transform="matrix(1 0 0 1 569 169)" fill="#2F4F4F" stroke="none"><tspan dx="0 " x="0" y="8">hasEmail: literal</tspan></text><text transform="matrix(1 0 0 1 555 179)" fill="#2F4F4F" stroke="none"><tspan dx="0 " x="0" y="8">+ </tspan></text><text transform="matrix(1 0 0 1 569 179)" fill="#2F4F4F" stroke="none"><tspan dx="0 " x="0" y="8">hasTelephone: literal</tspan></text><text transform="matrix(1 0 0 1 555 189)" fill="#2F4F4F" stroke="none"><tspan dx="0 " x="0" y="8">+ </tspan></text><text transform="matrix(1 0 0 1 569 189)" fill="#2F4F4F" stroke="none"><tspan dx="0 " x="0" y="8">openingHours: structured literal</tspan></text><path fill="#DFDFDF" stroke="none" d="M583 453C583 448 583 448 588 448h79C672 448 672 448 672 453v59C672 517 672 517 667 517H588C583 517 583 517 583 512V453" /><path fill="#FEFAF7" stroke="none" d="M580 450C580 445 580 445 585 445h79C669 445 669 445 669 450v59C669 514 669 514 664 514H585C580 514 580 514 580 509V450" /><path d="M580 450C580 445 580 445 585 445h79C669 445 669 445 669 450v59C669 514 669 514 664 514H585C580 514 580 514 580 509V450m0 0C580 445 580 445 585 445h79C669 445 669 445 669 450v59C669 514 669 514 664 514H585C580 514 580 514 580 509V450" /><rect x="580" y="445" width="89" height="69" /><text transform="matrix(1 0 0 1 603 454)" fill="#000000" font-weight="bold" stroke="none"><desc xmlns:eadoc="http://www.siemens.com/eauml/doc"><eadoc:guid>EAID_E481B015_499B_44d1_9D7E_6001078BA6BE</eadoc:guid><eadoc:name>ImageObject</eadoc:name><eadoc:type>Class</eadoc:type><eadoc:note></eadoc:note></desc><tspan dx="0 " x="0" y="8">ImageObject</tspan></text><path fill="#DFDFDF" stroke="none" d="M847 269C847 264 847 264 852 264h78C935 264 935 264 935 269v46C935 320 935 320 930 320H852C847 320 847 320 847 315V269" /><path fill="#FEFAF7" stroke="none" d="M844 266C844 261 844 261 849 261h78C932 261 932 261 932 266v46C932 317 932 317 927 317H849C844 317 844 317 844 312V266" /><path d="M844 266C844 261 844 261 849 261h78C932 261 932 261 932 266v46C932 317 932 317 927 317H849C844 317 844 317 844 312V266m0 0C844 261 844 261 849 261h78C932 261 932 261 932 266v46C932 317 932 317 927 317H849C844 317 844 317 844 312V266" /><rect x="844" y="261" width="88" height="56" /><text transform="matrix(1 0 0 1 866 270)" fill="#000000" font-weight="bold" stroke="none"><desc xmlns:eadoc="http://www.siemens.com/eauml/doc"><eadoc:guid>EAID_DE8F26E8_F1C6_40a9_85CD_988F37E818C1</eadoc:guid><eadoc:name>Organization</eadoc:name><eadoc:type>Class</eadoc:type><eadoc:note></eadoc:note></desc><tspan dx="0 " x="0" y="8">O</tspan><tspan dx="0 " x="5.75" y="8">r</tspan><tspan dx="0 " x="8.5" y="8">g</tspan><tspan dx="0 " x="12.5" y="8">a</tspan><tspan dx="0 " x="16.75" y="8">n</tspan><tspan dx="0 " x="21.25" y="8">i</tspan><tspan dx="0 " x="23.25" y="8">z</tspan><tspan dx="0 " x="26.5" y="8">a</tspan><tspan dx="0 0 " x="30.75" y="8">ti</tspan><tspan dx="0 " x="35.5" y="8">o</tspan><tspan dx="0 " x="39.75" y="8">n</tspan></text><path fill="#DFDFDF" stroke="none" d="M846 453C846 448 846 448 851 448h79C935 448 935 448 935 453v59C935 517 935 517 930 517H851C846 517 846 517 846 512V453" /><path fill="#FEFAF7" stroke="none" d="M843 450C843 445 843 445 848 445h79C932 445 932 445 932 450v59C932 514 932 514 927 514H848C843 514 843 514 843 509V450" /><path d="M843 450C843 445 843 445 848 445h79C932 445 932 445 932 450v59C932 514 932 514 927 514H848C843 514 843 514 843 509V450m0 0C843 445 843 445 848 445h79C932 445 932 445 932 450v59C932 514 932 514 927 514H848C843 514 843 514 843 509V450" /><rect x="843" y="445" width="89" height="69" /><text transform="matrix(1 0 0 1 870 454)" fill="#000000" font-weight="bold" stroke="none"><desc xmlns:eadoc="http://www.siemens.com/eauml/doc"><eadoc:guid>EAID_B4A0CE74_6FDF_4d46_A9C3_B42E059B949E</eadoc:guid><eadoc:name>Geometry</eadoc:name><eadoc:type>Class</eadoc:type><eadoc:note></eadoc:note></desc><tspan dx="0 " x="0" y="8">Geometry</tspan></text><path fill="#DFDFDF" stroke="none" d="M790 149C790 144 790 144 795 144H930C935 144 935 144 935 149v68C935 222 935 222 930 222H795C790 222 790 222 790 217V149" /><path fill="#FEFAF7" stroke="none" d="M787 146C787 141 787 141 792 141H927C932 141 932 141 932 146v68C932 219 932 219 927 219H792C787 219 787 219 787 214V146" /><path d="M787 146C787 141 787 141 792 141H927C932 141 932 141 932 146v68C932 219 932 219 927 219H792C787 219 787 219 787 214V146m0 0C787 141 787 141 792 141H927C932 141 932 141 932 146v68C932 219 932 219 927 219H792C787 219 787 219 787 214V146" /><rect x="787" y="141" width="145" height="78" /><text transform="matrix(1 0 0 1 811 150)" fill="#000000" font-weight="bold" stroke="none"><desc xmlns:eadoc="http://www.siemens.com/eauml/doc"><eadoc:guid>EAID_D600215E_193F_4c6b_898D_C87E91588C49</eadoc:guid><eadoc:name>Opening Hours Specification</eadoc:name><eadoc:type>Class</eadoc:type><eadoc:note></eadoc:note></desc><tspan dx="0 " x="0" y="8">O</tspan><tspan dx="0 " x="5.75" y="8">p</tspan><tspan dx="0 " x="10.25" y="8">e</tspan><tspan dx="0 " x="14.5" y="8">n</tspan><tspan dx="0 " x="19" y="8">i</tspan><tspan dx="0 " x="21" y="8">n</tspan><tspan dx="0 " x="25.5" y="8">g</tspan><tspan dx="0 " x="29.5" y="8"> </tspan><tspan dx="0 " x="31.5" y="8">H</tspan><tspan dx="0 " x="36.75" y="8">o</tspan><tspan dx="0 " x="41.25" y="8">u</tspan><tspan dx="0 " x="45.75" y="8">r</tspan><tspan dx="0 " x="48.5" y="8">s</tspan><tspan dx="0 " x="51.75" y="8"> </tspan><tspan dx="0 " x="53.75" y="8">S</tspan><tspan dx="0 " x="57.75" y="8">p</tspan><tspan dx="0 " x="62.25" y="8">e</tspan><tspan dx="0 " x="66.5" y="8">c</tspan><tspan dx="0 " x="69.75" y="8">i</tspan><tspan dx="0 0 " x="71.75" y="8">fi</tspan><tspan dx="0 " x="76.25" y="8">c</tspan><tspan dx="0 " x="79.5" y="8">a</tspan><tspan dx="0 0 " x="83.75" y="8">ti</tspan><tspan dx="0 " x="88.5" y="8">o</tspan><tspan dx="0 " x="92.75" y="8">n</tspan></text><path d="M787 165H932" /><text transform="matrix(1 0 0 1 792 169)" fill="#2F4F4F" stroke="none"><tspan dx="0 " x="0" y="8">+ </tspan></text><text transform="matrix(1 0 0 1 806 169)" fill="#2F4F4F" stroke="none"><tspan dx="0 " x="0" y="8">dayOfWeek: URI</tspan></text><text transform="matrix(1 0 0 1 792 179)" fill="#2F4F4F" stroke="none"><tspan dx="0 " x="0" y="8">+ </tspan></text><text transform="matrix(1 0 0 1 806 179)" fill="#2F4F4F" stroke="none"><tspan dx="0 " x="0" y="8">validFrom: DateTime</tspan></text><text transform="matrix(1 0 0 1 792 189)" fill="#2F4F4F" stroke="none"><tspan dx="0 " x="0" y="8">+ </tspan></text><text transform="matrix(1 0 0 1 806 189)" fill="#2F4F4F" stroke="none"><tspan dx="0 " x="0" y="8">validThrough: DateTime</tspan></text><path d="M649 268V216m0 0l6 15m-6 -15l-6 15" /><path d="M668 364H822m0 0l-15 6m15 -6l-15 -6" /><path d="M668 364l15 6m-15 -6l15 -6" /><path d="M525 268V185m0 0H503m0 0l15 -6m-15 6l15 6" /><path d="M501 367v39m0 0H416m0 0v39m0 0l-6 -15m6 15l6 -15" /><path d="M493 337H325m0 0l15 -6m-15 6l15 6" /><path d="M493 337l-15 -6m15 6l-15 6" /><path d="M524 367v78m0 0l-6 -15m6 15l6 -15" /><path d="M280 285V198m0 0l6 15m-6 -15l-6 15" /><path d="M280 285l6 -15m-6 15l-6 -15" /><path d="M668 331H776m0 0V306m0 0H668m0 0l15 -6m-15 6l15 6m-15 19l15 6m-15 -6l15 -6" /><path d="M507 268V250m0 0H472m0 0v37m0 0h21m0 0l-15 6m15 -6l-15 -6" /><path d="M507 268l6 -15m-6 15l-6 -15" /><path d="M888 344V318" /><path fill="#F7DDB4" d="M894 334H882l6 -16l6 16" /><path d="M279 445V355" /><path fill="#F7DDB4" d="M285 371H273l6 -16l6 16" /><path d="M605 367v78m0 0l-6 -15m6 15l6 -15" /><path d="M616 268V235m0 0H582m0 0v33m0 0l-6 -15m6 15l6 -15" /><path d="M616 268l6 -15m-6 15l-6 -15" /><path d="M668 272H844" /><path fill="#F7DDB4" d="M828 278V266l16 6l-16 6" /><path d="M785 480h58m0 0l-15 6m15 -6l-15 -6" /><path d="M729 194h58m0 0l-15 6m15 -6l-15 -6" /><path d="M653 367v39m0 0h76m0 0v39m0 0l-6 -15m6 15l6 -15" /><g transform="matrix(1 0 0 -1 680 232)"><rect fill="#FFFFFF" stroke="none" x="0" width="65" y="-10" height="10" /></g><text transform="matrix(1 0 0 1 680 232)" fill="#000000" stroke="none"><tspan dx="0 " x="0" y="8">+hasContactPoint</tspan></text><g transform="matrix(1 0 0 -1 804 465)"><rect fill="#FFFFFF" stroke="none" x="0" width="39" y="-10" height="10" /></g><text transform="matrix(1 0 0 1 804 465)" fill="#000000" stroke="none"><tspan dx="0 " x="0" y="8">+geometry</tspan></text><g transform="matrix(1 0 0 -1 670 316)"><rect fill="#FFFFFF" stroke="none" x="0" width="81" y="-10" height="10" /></g><text transform="matrix(1 0 0 1 670 316)" fill="#000000" stroke="none"><tspan dx="0 " x="0" y="8">+</tspan><tspan dx="0 " x="4.75" y="8">h</tspan><tspan dx="0 " x="9.75" y="8">a</tspan><tspan dx="0 " x="14.25" y="8">s</tspan><tspan dx="0 " x="18" y="8">S</tspan><tspan dx="0 " x="22.5" y="8">u</tspan><tspan dx="0 " x="27.5" y="8">b</tspan><tspan dx="0 " x="32.5" y="8">O</tspan><tspan dx="0 " x="38.5" y="8">r</tspan><tspan dx="0 " x="41.75" y="8">g</tspan><tspan dx="0 " x="46.25" y="8">a</tspan><tspan dx="0 " x="50.75" y="8">n</tspan><tspan dx="0 " x="55.75" y="8">i</tspan><tspan dx="0 " x="58.25" y="8">z</tspan><tspan dx="0 " x="62" y="8">a</tspan><tspan dx="0 0 " x="66.5" y="8">ti</tspan><tspan dx="0 " x="71.5" y="8">o</tspan><tspan dx="0 " x="76.25" y="8">n</tspan></text><g transform="matrix(1 0 0 -1 706 291)"><rect fill="#FFFFFF" stroke="none" x="0" width="75" y="-10" height="10" /></g><text transform="matrix(1 0 0 1 706 291)" fill="#000000" stroke="none"><tspan dx="0 " x="0" y="8">+</tspan><tspan dx="0 " x="4.75" y="8">s</tspan><tspan dx="0 " x="8.5" y="8">u</tspan><tspan dx="0 " x="13.5" y="8">b</tspan><tspan dx="0 " x="18.5" y="8">O</tspan><tspan dx="0 " x="24.5" y="8">r</tspan><tspan dx="0 " x="27.75" y="8">g</tspan><tspan dx="0 " x="32.25" y="8">a</tspan><tspan dx="0 " x="36.75" y="8">n</tspan><tspan dx="0 " x="41.75" y="8">i</tspan><tspan dx="0 " x="44.25" y="8">z</tspan><tspan dx="0 " x="47.75" y="8">a</tspan><tspan dx="0 0 " x="52" y="8">ti</tspan><tspan dx="0 " x="57" y="8">o</tspan><tspan dx="0 " x="61.75" y="8">n</tspan><tspan dx="0 " x="66.5" y="8">O</tspan><tspan dx="0 " x="72.25" y="8">f</tspan></text><g transform="matrix(1 0 0 -1 744 417)"><rect fill="#FFFFFF" stroke="none" x="0" width="31" y="-10" height="10" /></g><text transform="matrix(1 0 0 1 744 417)" fill="#000000" stroke="none"><tspan dx="0 " x="0" y="8">+</tspan><tspan dx="0 " x="5" y="8">s</tspan><tspan dx="0 " x="9" y="8">p</tspan><tspan dx="0 " x="14" y="8">a</tspan><tspan dx="0 0 " x="18.5" y="8">ti</tspan><tspan dx="0 " x="24" y="8">a</tspan><tspan dx="0 " x="28.5" y="8">l</tspan></text><g transform="matrix(1 0 0 -1 473 430)"><rect fill="#FFFFFF" stroke="none" x="0" width="44" y="-10" height="10" /></g><text transform="matrix(1 0 0 1 473 430)" fill="#000000" stroke="none"><tspan dx="0 " x="0" y="8">+homepage</tspan></text><g transform="matrix(1 0 0 -1 307 253)"><rect fill="#FFFFFF" stroke="none" x="0" width="50" y="-10" height="10" /></g><text transform="matrix(1 0 0 1 307 253)" fill="#000000" stroke="none"><tspan dx="0 " x="0" y="8">+implements</tspan></text><g transform="matrix(1 0 0 -1 319 214)"><rect fill="#FFFFFF" stroke="none" x="0" width="86" y="-10" height="10" /></g><text transform="matrix(1 0 0 1 319 214)" fill="#000000" stroke="none"><tspan dx="0 " x="0" y="8">+hasFormalFramework</tspan></text><g transform="matrix(1 0 0 -1 688 353)"><rect fill="#FFFFFF" stroke="none" x="0" width="28" y="-10" height="10" /></g><text transform="matrix(1 0 0 1 688 353)" fill="#000000" stroke="none"><tspan dx="0 " x="0" y="8">+unitOf</tspan></text><g transform="matrix(1 0 0 -1 782 353)"><rect fill="#FFFFFF" stroke="none" x="0" width="34" y="-10" height="10" /></g><text transform="matrix(1 0 0 1 782 353)" fill="#000000" stroke="none"><tspan dx="0 " x="0" y="8">+hasUnit</tspan></text><g transform="matrix(1 0 0 -1 446 310)"><rect fill="#FFFFFF" stroke="none" x="0" width="85" y="-10" height="10" /></g><text transform="matrix(1 0 0 1 446 310)" fill="#000000" stroke="none"><tspan dx="0 " x="0" y="8">+</tspan><tspan dx="0 " x="4.75" y="8">o</tspan><tspan dx="0 " x="9.75" y="8">r</tspan><tspan dx="0 " x="13" y="8">i</tspan><tspan dx="0 " x="15.5" y="8">g</tspan><tspan dx="0 " x="20" y="8">i</tspan><tspan dx="0 " x="22.5" y="8">n</tspan><tspan dx="0 " x="27.5" y="8">a</tspan><tspan dx="0 " x="32" y="8">l</tspan><tspan dx="0 " x="34.5" y="8">O</tspan><tspan dx="0 " x="40.5" y="8">r</tspan><tspan dx="0 " x="43.75" y="8">g</tspan><tspan dx="0 " x="48.25" y="8">a</tspan><tspan dx="0 " x="52.75" y="8">n</tspan><tspan dx="0 " x="57.75" y="8">i</tspan><tspan dx="0 " x="60.25" y="8">z</tspan><tspan dx="0 " x="64" y="8">a</tspan><tspan dx="0 0 " x="68.25" y="8">ti</tspan><tspan dx="0 " x="73.25" y="8">o</tspan><tspan dx="0 " x="78" y="8">n</tspan><tspan dx="0 " x="82.75" y="8">,</tspan></text><g transform="matrix(1 0 0 -1 446 320)"><rect fill="#FFFFFF" stroke="none" x="0" width="83" y="-10" height="10" /></g><text transform="matrix(1 0 0 1 446 320)" fill="#000000" stroke="none"><tspan dx="0 " x="0" y="8">r</tspan><tspan dx="0 " x="3.25" y="8">e</tspan><tspan dx="0 " x="8" y="8">s</tspan><tspan dx="0 " x="11.75" y="8">u</tspan><tspan dx="0 " x="16.75" y="8">l</tspan><tspan dx="0 0 " x="19.25" y="8">ti</tspan><tspan dx="0 " x="24.75" y="8">n</tspan><tspan dx="0 " x="29.75" y="8">g</tspan><tspan dx="0 " x="34.25" y="8">O</tspan><tspan dx="0 " x="40.25" y="8">r</tspan><tspan dx="0 " x="43.5" y="8">g</tspan><tspan dx="0 " x="48" y="8">a</tspan><tspan dx="0 " x="52.5" y="8">n</tspan><tspan dx="0 " x="57.5" y="8">i</tspan><tspan dx="0 " x="60" y="8">z</tspan><tspan dx="0 " x="63.75" y="8">a</tspan><tspan dx="0 0 " x="68.25" y="8">ti</tspan><tspan dx="0 " x="73.5" y="8">o</tspan><tspan dx="0 " x="78.25" y="8">n</tspan></text><g transform="matrix(1 0 0 -1 342 345)"><rect fill="#FFFFFF" stroke="none" x="0" width="57" y="-10" height="10" /></g><text transform="matrix(1 0 0 1 342 345)" fill="#000000" stroke="none"><tspan dx="0 " x="0" y="8">+resultedFrom,</tspan></text><g transform="matrix(1 0 0 -1 342 355)"><rect fill="#FFFFFF" stroke="none" x="0" width="40" y="-10" height="10" /></g><text transform="matrix(1 0 0 1 342 355)" fill="#000000" stroke="none"><tspan dx="0 " x="0" y="8">changedBy</tspan></text><g transform="matrix(1 0 0 -1 594 243)"><rect fill="#FFFFFF" stroke="none" x="0" width="20" y="-10" height="10" /></g><text transform="matrix(1 0 0 1 594 243)" fill="#000000" stroke="none"><tspan dx="0 " x="0" y="8">+prev</tspan></text><g transform="matrix(1 0 0 -1 556 242)"><rect fill="#FFFFFF" stroke="none" x="0" width="20" y="-10" height="10" /></g><text transform="matrix(1 0 0 1 556 242)" fill="#000000" stroke="none"><tspan dx="0 " x="0" y="8">+next</tspan></text><g transform="matrix(1 0 0 -1 625 431)"><rect fill="#FFFFFF" stroke="none" x="0" width="21" y="-10" height="10" /></g><text transform="matrix(1 0 0 1 625 431)" fill="#000000" stroke="none"><tspan dx="0 " x="0" y="8">+logo</tspan></text><g transform="matrix(1 0 0 -1 473 237)"><rect fill="#FFFFFF" stroke="none" x="0" width="44" y="-10" height="10" /></g><text transform="matrix(1 0 0 1 473 237)" fill="#000000" stroke="none"><tspan dx="0 " x="0" y="8">+memberOf</tspan></text><g transform="matrix(1 0 0 -1 426 273)"><rect fill="#FFFFFF" stroke="none" x="0" width="49" y="-10" height="10" /></g><text transform="matrix(1 0 0 1 426 273)" fill="#000000" stroke="none"><tspan dx="0 " x="0" y="8">+hasMember</tspan></text><g transform="matrix(1 0 0 -1 381 404)"><rect fill="#FFFFFF" stroke="none" x="0" width="38" y="-10" height="10" /></g><text transform="matrix(1 0 0 1 381 404)" fill="#000000" stroke="none"><tspan dx="0 " x="0" y="8">+purpose,</tspan></text><g transform="matrix(1 0 0 -1 381 414)"><rect fill="#FFFFFF" stroke="none" x="0" width="51" y="-10" height="10" /></g><text transform="matrix(1 0 0 1 381 414)" fill="#000000" stroke="none"><tspan dx="0 " x="0" y="8">c</tspan><tspan dx="0 " x="4" y="8">l</tspan><tspan dx="0 " x="6.5" y="8">a</tspan><tspan dx="0 " x="11" y="8">s</tspan><tspan dx="0 " x="15" y="8">s</tspan><tspan dx="0 " x="19" y="8">i</tspan><tspan dx="0 0 " x="21.5" y="8">fi</tspan><tspan dx="0 " x="27" y="8">c</tspan><tspan dx="0 " x="31" y="8">a</tspan><tspan dx="0 0 " x="35.5" y="8">ti</tspan><tspan dx="0 " x="41" y="8">o</tspan><tspan dx="0 " x="46" y="8">n</tspan></text><g transform="matrix(1 0 0 -1 474 203)"><rect fill="#FFFFFF" stroke="none" x="0" width="35" y="-10" height="10" /></g><text transform="matrix(1 0 0 1 474 203)" fill="#000000" stroke="none"><tspan dx="0 " x="0" y="8">+address</tspan></text><g transform="matrix(1 0 0 -1 756 164)"><rect fill="#FFFFFF" stroke="none" x="0" width="47" y="-10" height="10" /></g><text transform="matrix(1 0 0 1 756 164)" fill="#000000" stroke="none"><tspan dx="0 " x="0" y="8">+availability</tspan></text><g transform="matrix(1 0 0 -1 756 174)"><rect fill="#FFFFFF" stroke="none" x="0" width="39" y="-10" height="10" /></g><text transform="matrix(1 0 0 1 756 174)" fill="#000000" stroke="none"><tspan dx="0 " x="0" y="8">r</tspan><tspan dx="0 " x="3.25" y="8">e</tspan><tspan dx="0 " x="8" y="8">s</tspan><tspan dx="0 " x="12" y="8">t</tspan><tspan dx="0 " x="15" y="8">r</tspan><tspan dx="0 " x="18.25" y="8">i</tspan><tspan dx="0 " x="20.75" y="8">c</tspan><tspan dx="0 0 " x="24.5" y="8">ti</tspan><tspan dx="0 " x="29.5" y="8">o</tspan><tspan dx="0 " x="34.25" y="8">n</tspan></text></g></g></g></g></svg>